M48
; DRILL file {KiCad (6.0.0)} date Sun Jan 16 12:47:15 2022
; FORMAT={-:-/ absolute / inch / decimal}
; #@! TF.CreationDate,2022-01-16T12:47:15+01:00
; #@! TF.GenerationSoftware,Kicad,Pcbnew,(6.0.0)
; #@! TF.FileFunction,MixedPlating,1,2
FMAT,2
INCH
; #@! TA.AperFunction,Plated,PTH,ViaDrill
T1C0.0157
; #@! TA.AperFunction,Plated,PTH,ComponentDrill
T2C0.0394
%
G90
G05
T1
X4.8898Y-4.8282
X4.8898Y-4.8676
X5.0433Y-5.1024
X5.0514Y-5.0135
X5.0984Y-4.9385
X5.1732Y-5.2456
X5.2638Y-4.7677
X5.2756Y-5.0709
X5.2872Y-5.0135
X5.3071Y-4.6983
X5.3661Y-5.0472
X5.5157Y-5.0369
T2
X4.9724Y-5.3396
X5.0724Y-5.3396
X5.1724Y-5.3396
X5.2724Y-5.3396
X5.3724Y-5.3396
X5.4331Y-4.6457
X5.4331Y-4.7457
X5.4331Y-4.8457
X5.4331Y-4.9457
X5.4724Y-5.3396
T0
M30
