%TF.GenerationSoftware,KiCad,Pcbnew,(6.0.0)*%
%TF.CreationDate,2022-01-16T12:51:45+01:00*%
%TF.ProjectId,HW_watchdog,48575f77-6174-4636-9864-6f672e6b6963,rev?*%
%TF.SameCoordinates,Original*%
%TF.FileFunction,Copper,L1,Top*%
%TF.FilePolarity,Positive*%
%FSLAX46Y46*%
G04 Gerber Fmt 4.6, Leading zero omitted, Abs format (unit mm)*
G04 Created by KiCad (PCBNEW (6.0.0)) date 2022-01-16 12:51:45*
%MOMM*%
%LPD*%
G01*
G04 APERTURE LIST*
G04 Aperture macros list*
%AMRoundRect*
0 Rectangle with rounded corners*
0 $1 Rounding radius*
0 $2 $3 $4 $5 $6 $7 $8 $9 X,Y pos of 4 corners*
0 Add a 4 corners polygon primitive as box body*
4,1,4,$2,$3,$4,$5,$6,$7,$8,$9,$2,$3,0*
0 Add four circle primitives for the rounded corners*
1,1,$1+$1,$2,$3*
1,1,$1+$1,$4,$5*
1,1,$1+$1,$6,$7*
1,1,$1+$1,$8,$9*
0 Add four rect primitives between the rounded corners*
20,1,$1+$1,$2,$3,$4,$5,0*
20,1,$1+$1,$4,$5,$6,$7,0*
20,1,$1+$1,$6,$7,$8,$9,0*
20,1,$1+$1,$8,$9,$2,$3,0*%
G04 Aperture macros list end*
%TA.AperFunction,SMDPad,CuDef*%
%ADD10RoundRect,0.250000X0.625000X-0.375000X0.625000X0.375000X-0.625000X0.375000X-0.625000X-0.375000X0*%
%TD*%
%TA.AperFunction,SMDPad,CuDef*%
%ADD11RoundRect,0.250000X0.625000X-0.312500X0.625000X0.312500X-0.625000X0.312500X-0.625000X-0.312500X0*%
%TD*%
%TA.AperFunction,SMDPad,CuDef*%
%ADD12R,0.558800X1.270000*%
%TD*%
%TA.AperFunction,ComponentPad*%
%ADD13R,1.700000X1.700000*%
%TD*%
%TA.AperFunction,ComponentPad*%
%ADD14O,1.700000X1.700000*%
%TD*%
%TA.AperFunction,SMDPad,CuDef*%
%ADD15RoundRect,0.250000X-0.375000X-0.625000X0.375000X-0.625000X0.375000X0.625000X-0.375000X0.625000X0*%
%TD*%
%TA.AperFunction,ViaPad*%
%ADD16C,0.800000*%
%TD*%
%TA.AperFunction,Conductor*%
%ADD17C,0.250000*%
%TD*%
G04 APERTURE END LIST*
D10*
%TO.P,D2,1,K*%
%TO.N,GND*%
X124000000Y-132737500D03*
%TO.P,D2,2,A*%
%TO.N,Net-(D2-Pad2)*%
X124000000Y-129937500D03*
%TD*%
D11*
%TO.P,R2,1*%
%TO.N,/IN1*%
X126700000Y-125500000D03*
%TO.P,R2,2*%
%TO.N,Net-(Q1-Pad1)*%
X126700000Y-122575000D03*
%TD*%
%TO.P,R3,1*%
%TO.N,/IN2*%
X134000000Y-125462500D03*
%TO.P,R3,2*%
%TO.N,Net-(Q2-Pad1)*%
X134000000Y-122537500D03*
%TD*%
D12*
%TO.P,U1,1,PB0*%
%TO.N,/IN1*%
X130460200Y-129932900D03*
%TO.P,U1,2,GND*%
%TO.N,GND*%
X131400000Y-129932900D03*
%TO.P,U1,3,PB1*%
%TO.N,/IN2*%
X132339800Y-129932900D03*
%TO.P,U1,4,PB2*%
%TO.N,/OUT1*%
X132339800Y-127342100D03*
%TO.P,U1,5,VCC*%
%TO.N,/VCC*%
X131400000Y-127342100D03*
%TO.P,U1,6,PB3*%
%TO.N,/OUT2*%
X130460200Y-127342100D03*
%TD*%
D13*
%TO.P,J1,1,Pin_1*%
%TO.N,GND*%
X139000000Y-135625000D03*
D14*
%TO.P,J1,2,Pin_2*%
X136460000Y-135625000D03*
%TO.P,J1,3,Pin_3*%
%TO.N,/IN2*%
X133920000Y-135625000D03*
%TO.P,J1,4,Pin_4*%
%TO.N,GND*%
X131380000Y-135625000D03*
%TO.P,J1,5,Pin_5*%
%TO.N,/IN1*%
X128840000Y-135625000D03*
%TO.P,J1,6,Pin_6*%
%TO.N,/VCC*%
X126300000Y-135625000D03*
%TD*%
D10*
%TO.P,D3,1,K*%
%TO.N,GND*%
X139000000Y-132637500D03*
%TO.P,D3,2,A*%
%TO.N,Net-(D3-Pad2)*%
X139000000Y-129837500D03*
%TD*%
D15*
%TO.P,D1,1,K*%
%TO.N,GND*%
X130200000Y-119337500D03*
%TO.P,D1,2,A*%
%TO.N,Net-(D1-Pad2)*%
X133000000Y-119337500D03*
%TD*%
D10*
%TO.P,C1,1*%
%TO.N,/VCC*%
X131400000Y-125437500D03*
%TO.P,C1,2*%
%TO.N,GND*%
X131400000Y-122637500D03*
%TD*%
D13*
%TO.P,J2,1,Pin_1*%
%TO.N,/VCC*%
X138000000Y-118000000D03*
D14*
%TO.P,J2,2,Pin_2*%
%TO.N,/OUT1*%
X138000000Y-120540000D03*
%TO.P,J2,3,Pin_3*%
%TO.N,/OUT2*%
X138000000Y-123080000D03*
%TO.P,J2,4,Pin_4*%
%TO.N,GND*%
X138000000Y-125620000D03*
%TD*%
D16*
%TO.N,GND*%
X128100000Y-129600000D03*
X131400000Y-133237500D03*
X134000000Y-128800000D03*
X133700000Y-121100000D03*
%TO.N,Net-(D1-Pad2)*%
X134800000Y-119337500D03*
%TO.N,Net-(D2-Pad2)*%
X124200000Y-123637500D03*
%TO.N,Net-(D3-Pad2)*%
X140100000Y-127937500D03*
%TO.N,Net-(Q1-Pad1)*%
X124200000Y-122637500D03*
%TO.N,Net-(Q2-Pad1)*%
X136300000Y-128200000D03*
%TO.N,/VCC*%
X129500000Y-125437500D03*
%TO.N,/OUT1*%
X134295400Y-127342100D03*
%TO.N,/OUT2*%
X128304600Y-127342100D03*
%TD*%
D17*
%TO.N,/VCC*%
X134600000Y-118000000D02*
X138000000Y-118000000D01*
X128900000Y-117500000D02*
X134100000Y-117500000D01*
X128300000Y-124237500D02*
X128300000Y-118100000D01*
X129500000Y-125437500D02*
X128300000Y-124237500D01*
X128300000Y-118100000D02*
X128900000Y-117500000D01*
X134100000Y-117500000D02*
X134600000Y-118000000D01*
%TO.N,Net-(D1-Pad2)*%
X134800000Y-119337500D02*
X133000000Y-119337500D01*
%TO.N,Net-(D2-Pad2)*%
X124000000Y-129937500D02*
X124000000Y-123837500D01*
X124000000Y-123837500D02*
X124200000Y-123637500D01*
%TO.N,Net-(D3-Pad2)*%
X139400000Y-127937500D02*
X140100000Y-127937500D01*
X139000000Y-129837500D02*
X139000000Y-128337500D01*
X139000000Y-128337500D02*
X139400000Y-127937500D01*
%TO.N,Net-(Q1-Pad1)*%
X126637500Y-122637500D02*
X126700000Y-122575000D01*
X124200000Y-122637500D02*
X126637500Y-122637500D01*
%TO.N,Net-(Q2-Pad1)*%
X136300000Y-123300000D02*
X135537500Y-122537500D01*
X135537500Y-122537500D02*
X134000000Y-122537500D01*
X136300000Y-128200000D02*
X136300000Y-123300000D01*
%TO.N,/VCC*%
X131400000Y-127342100D02*
X131400000Y-125437500D01*
X129500000Y-125437500D02*
X131400000Y-125437500D01*
%TO.N,/IN1*%
X126700000Y-131757500D02*
X126700000Y-125500000D01*
X128840000Y-135625000D02*
X128840000Y-133897500D01*
X130460200Y-132277300D02*
X130460200Y-129932900D01*
X128840000Y-133897500D02*
X126700000Y-131757500D01*
X128840000Y-133897500D02*
X130460200Y-132277300D01*
%TO.N,/IN2*%
X132339800Y-132377300D02*
X132339800Y-129932900D01*
X135400000Y-125900000D02*
X135400000Y-132477500D01*
X135400000Y-132477500D02*
X133920000Y-133957500D01*
X133920000Y-135625000D02*
X133920000Y-133957500D01*
X134962500Y-125462500D02*
X135400000Y-125900000D01*
X134000000Y-125462500D02*
X134962500Y-125462500D01*
X133920000Y-133957500D02*
X132339800Y-132377300D01*
%TO.N,/OUT1*%
X132339800Y-127342100D02*
X134295400Y-127342100D01*
%TO.N,/OUT2*%
X130460200Y-127342100D02*
X128304600Y-127342100D01*
%TD*%
%TA.AperFunction,Conductor*%
%TO.N,GND*%
G36*
X139004114Y-110000770D02*
G01*
X139083283Y-110005959D01*
X139084031Y-110006010D01*
X139261445Y-110018699D01*
X139277038Y-110020799D01*
X139388302Y-110042931D01*
X139390503Y-110043389D01*
X139530117Y-110073760D01*
X139543836Y-110077568D01*
X139657624Y-110116194D01*
X139661155Y-110117451D01*
X139788711Y-110165027D01*
X139800406Y-110170077D01*
X139910592Y-110224414D01*
X139915249Y-110226832D01*
X140032405Y-110290804D01*
X140042021Y-110296627D01*
X140145219Y-110365581D01*
X140150689Y-110369450D01*
X140256656Y-110448776D01*
X140264223Y-110454912D01*
X140357935Y-110537095D01*
X140363953Y-110542732D01*
X140457268Y-110636047D01*
X140462905Y-110642065D01*
X140545088Y-110735777D01*
X140551220Y-110743339D01*
X140630550Y-110849311D01*
X140634419Y-110854781D01*
X140703373Y-110957979D01*
X140709196Y-110967595D01*
X140773168Y-111084751D01*
X140775586Y-111089408D01*
X140829923Y-111199594D01*
X140834973Y-111211289D01*
X140882549Y-111338845D01*
X140883806Y-111342376D01*
X140922432Y-111456164D01*
X140926240Y-111469883D01*
X140956611Y-111609497D01*
X140957069Y-111611698D01*
X140979201Y-111722962D01*
X140981301Y-111738555D01*
X140993990Y-111915969D01*
X140994041Y-111916717D01*
X140999230Y-111995886D01*
X140999500Y-112004127D01*
X140999500Y-144995873D01*
X140999230Y-145004114D01*
X140994041Y-145083283D01*
X140993990Y-145084031D01*
X140981301Y-145261445D01*
X140979201Y-145277038D01*
X140957069Y-145388302D01*
X140956611Y-145390503D01*
X140926240Y-145530117D01*
X140922432Y-145543836D01*
X140883806Y-145657624D01*
X140882549Y-145661155D01*
X140834973Y-145788711D01*
X140829923Y-145800406D01*
X140775586Y-145910592D01*
X140773168Y-145915249D01*
X140709196Y-146032405D01*
X140703373Y-146042021D01*
X140634419Y-146145219D01*
X140630550Y-146150689D01*
X140551224Y-146256656D01*
X140545088Y-146264223D01*
X140462905Y-146357935D01*
X140457268Y-146363953D01*
X140363953Y-146457268D01*
X140357935Y-146462905D01*
X140264223Y-146545088D01*
X140256661Y-146551220D01*
X140150689Y-146630550D01*
X140145219Y-146634419D01*
X140042021Y-146703373D01*
X140032405Y-146709196D01*
X139915249Y-146773168D01*
X139910592Y-146775586D01*
X139800406Y-146829923D01*
X139788711Y-146834973D01*
X139661155Y-146882549D01*
X139657624Y-146883806D01*
X139543836Y-146922432D01*
X139530117Y-146926240D01*
X139390503Y-146956611D01*
X139388302Y-146957069D01*
X139277038Y-146979201D01*
X139261445Y-146981301D01*
X139084031Y-146993990D01*
X139083283Y-146994041D01*
X139004114Y-146999230D01*
X138995873Y-146999500D01*
X124004127Y-146999500D01*
X123995886Y-146999230D01*
X123916717Y-146994041D01*
X123915969Y-146993990D01*
X123738555Y-146981301D01*
X123722962Y-146979201D01*
X123611698Y-146957069D01*
X123609497Y-146956611D01*
X123469883Y-146926240D01*
X123456164Y-146922432D01*
X123342376Y-146883806D01*
X123338845Y-146882549D01*
X123211289Y-146834973D01*
X123199594Y-146829923D01*
X123089408Y-146775586D01*
X123084751Y-146773168D01*
X122967595Y-146709196D01*
X122957979Y-146703373D01*
X122854781Y-146634419D01*
X122849311Y-146630550D01*
X122743339Y-146551220D01*
X122735777Y-146545088D01*
X122642065Y-146462905D01*
X122636047Y-146457268D01*
X122542732Y-146363953D01*
X122537095Y-146357935D01*
X122454912Y-146264223D01*
X122448776Y-146256656D01*
X122369450Y-146150689D01*
X122365581Y-146145219D01*
X122296627Y-146042021D01*
X122290804Y-146032405D01*
X122226832Y-145915249D01*
X122224414Y-145910592D01*
X122170077Y-145800406D01*
X122165027Y-145788711D01*
X122117451Y-145661155D01*
X122116194Y-145657624D01*
X122077568Y-145543836D01*
X122073760Y-145530117D01*
X122043389Y-145390503D01*
X122042931Y-145388302D01*
X122020799Y-145277038D01*
X122018699Y-145261445D01*
X122006010Y-145084031D01*
X122005959Y-145083283D01*
X122000770Y-145004114D01*
X122000500Y-144995873D01*
X122000500Y-135610262D01*
X125244520Y-135610262D01*
X125261759Y-135815553D01*
X125263458Y-135821478D01*
X125309395Y-135981678D01*
X125318544Y-136013586D01*
X125321359Y-136019063D01*
X125321360Y-136019066D01*
X125409897Y-136191341D01*
X125412712Y-136196818D01*
X125540677Y-136358270D01*
X125545370Y-136362264D01*
X125545371Y-136362265D01*
X125619541Y-136425388D01*
X125697564Y-136491791D01*
X125702942Y-136494797D01*
X125702944Y-136494798D01*
X125733387Y-136511812D01*
X125877398Y-136592297D01*
X125972238Y-136623113D01*
X126067471Y-136654056D01*
X126067475Y-136654057D01*
X126073329Y-136655959D01*
X126277894Y-136680351D01*
X126284029Y-136679879D01*
X126284031Y-136679879D01*
X126340039Y-136675569D01*
X126483300Y-136664546D01*
X126489230Y-136662890D01*
X126489232Y-136662890D01*
X126675797Y-136610800D01*
X126675796Y-136610800D01*
X126681725Y-136609145D01*
X126687214Y-136606372D01*
X126687220Y-136606370D01*
X126860116Y-136519033D01*
X126865610Y-136516258D01*
X126881345Y-136503965D01*
X127023101Y-136393213D01*
X127027951Y-136389424D01*
X127085992Y-136322183D01*
X127158540Y-136238134D01*
X127158540Y-136238133D01*
X127162564Y-136233472D01*
X127183387Y-136196818D01*
X127201056Y-136165714D01*
X127264323Y-136054344D01*
X127329351Y-135858863D01*
X127355171Y-135654474D01*
X127355583Y-135625000D01*
X127335480Y-135419970D01*
X127275935Y-135222749D01*
X127179218Y-135040849D01*
X127103206Y-134947649D01*
X127052906Y-134885975D01*
X127052903Y-134885972D01*
X127049011Y-134881200D01*
X127031786Y-134866950D01*
X126895025Y-134753811D01*
X126895021Y-134753809D01*
X126890275Y-134749882D01*
X126709055Y-134651897D01*
X126512254Y-134590977D01*
X126506129Y-134590333D01*
X126506128Y-134590333D01*
X126313498Y-134570087D01*
X126313496Y-134570087D01*
X126307369Y-134569443D01*
X126220529Y-134577346D01*
X126108342Y-134587555D01*
X126108339Y-134587556D01*
X126102203Y-134588114D01*
X125904572Y-134646280D01*
X125722002Y-134741726D01*
X125717201Y-134745586D01*
X125717198Y-134745588D01*
X125684688Y-134771727D01*
X125561447Y-134870815D01*
X125429024Y-135028630D01*
X125426056Y-135034028D01*
X125426053Y-135034033D01*
X125419315Y-135046290D01*
X125329776Y-135209162D01*
X125267484Y-135405532D01*
X125266798Y-135411649D01*
X125266797Y-135411653D01*
X125245207Y-135604137D01*
X125244520Y-135610262D01*
X122000500Y-135610262D01*
X122000500Y-133159595D01*
X122617001Y-133159595D01*
X122617338Y-133166114D01*
X122627257Y-133261706D01*
X122630149Y-133275100D01*
X122681588Y-133429284D01*
X122687761Y-133442462D01*
X122773063Y-133580307D01*
X122782099Y-133591708D01*
X122896829Y-133706239D01*
X122908240Y-133715251D01*
X123046243Y-133800316D01*
X123059424Y-133806463D01*
X123213710Y-133857638D01*
X123227086Y-133860505D01*
X123321438Y-133870172D01*
X123327854Y-133870500D01*
X123727885Y-133870500D01*
X123743124Y-133866025D01*
X123744329Y-133864635D01*
X123746000Y-133856952D01*
X123746000Y-133852384D01*
X124254000Y-133852384D01*
X124258475Y-133867623D01*
X124259865Y-133868828D01*
X124267548Y-133870499D01*
X124672095Y-133870499D01*
X124678614Y-133870162D01*
X124774206Y-133860243D01*
X124787600Y-133857351D01*
X124941784Y-133805912D01*
X124954962Y-133799739D01*
X125092807Y-133714437D01*
X125104208Y-133705401D01*
X125218739Y-133590671D01*
X125227751Y-133579260D01*
X125312816Y-133441257D01*
X125318963Y-133428076D01*
X125370138Y-133273790D01*
X125373005Y-133260414D01*
X125382672Y-133166062D01*
X125383000Y-133159646D01*
X125383000Y-133009615D01*
X125378525Y-132994376D01*
X125377135Y-132993171D01*
X125369452Y-132991500D01*
X124272115Y-132991500D01*
X124256876Y-132995975D01*
X124255671Y-132997365D01*
X124254000Y-133005048D01*
X124254000Y-133852384D01*
X123746000Y-133852384D01*
X123746000Y-133009615D01*
X123741525Y-132994376D01*
X123740135Y-132993171D01*
X123732452Y-132991500D01*
X122635116Y-132991500D01*
X122619877Y-132995975D01*
X122618672Y-132997365D01*
X122617001Y-133005048D01*
X122617001Y-133159595D01*
X122000500Y-133159595D01*
X122000500Y-132465385D01*
X122617000Y-132465385D01*
X122621475Y-132480624D01*
X122622865Y-132481829D01*
X122630548Y-132483500D01*
X125364884Y-132483500D01*
X125380123Y-132479025D01*
X125381328Y-132477635D01*
X125382999Y-132469952D01*
X125382999Y-132315405D01*
X125382662Y-132308886D01*
X125372743Y-132213294D01*
X125369851Y-132199900D01*
X125318412Y-132045716D01*
X125312239Y-132032538D01*
X125226937Y-131894693D01*
X125217901Y-131883292D01*
X125136982Y-131802514D01*
X125102903Y-131740232D01*
X125100000Y-131713341D01*
X125100000Y-129800000D01*
X125094681Y-129800000D01*
X125086777Y-129773082D01*
X125080602Y-129763472D01*
X125075500Y-129727981D01*
X125075500Y-129508666D01*
X125072519Y-129477131D01*
X125027634Y-129349316D01*
X125022042Y-129341746D01*
X125022041Y-129341743D01*
X124952742Y-129247921D01*
X124947150Y-129240350D01*
X124930206Y-129227835D01*
X124845757Y-129165459D01*
X124845754Y-129165458D01*
X124838184Y-129159866D01*
X124710369Y-129114981D01*
X124702723Y-129114258D01*
X124702722Y-129114258D01*
X124696752Y-129113694D01*
X124678834Y-129112000D01*
X124451500Y-129112000D01*
X124383379Y-129091998D01*
X124336886Y-129038342D01*
X124325500Y-128986000D01*
X124325500Y-124319684D01*
X124345502Y-124251563D01*
X124403282Y-124203275D01*
X124435548Y-124189910D01*
X124502841Y-124162036D01*
X124628282Y-124065782D01*
X124724536Y-123940341D01*
X124785044Y-123794262D01*
X124805682Y-123637500D01*
X124788810Y-123509344D01*
X124786122Y-123488926D01*
X124785044Y-123480738D01*
X124724536Y-123334659D01*
X124632108Y-123214204D01*
X124606508Y-123147983D01*
X124620773Y-123078435D01*
X124632108Y-123060797D01*
X124669323Y-123012297D01*
X124726661Y-122970429D01*
X124769286Y-122963000D01*
X125474000Y-122963000D01*
X125542121Y-122983002D01*
X125588614Y-123036658D01*
X125600000Y-123089000D01*
X125600000Y-125900000D01*
X125607793Y-125900000D01*
X125611882Y-125903543D01*
X125648251Y-125957018D01*
X125669242Y-126016792D01*
X125669246Y-126016800D01*
X125672366Y-126025684D01*
X125752850Y-126134650D01*
X125760421Y-126140242D01*
X125854243Y-126209541D01*
X125854246Y-126209542D01*
X125861816Y-126215134D01*
X125989631Y-126260019D01*
X125997277Y-126260742D01*
X125997278Y-126260742D01*
X126003248Y-126261306D01*
X126021166Y-126263000D01*
X126248500Y-126263000D01*
X126316621Y-126283002D01*
X126363114Y-126336658D01*
X126374500Y-126389000D01*
X126374500Y-131737790D01*
X126374020Y-131748772D01*
X126370736Y-131786307D01*
X126375015Y-131802275D01*
X126380491Y-131822710D01*
X126382870Y-131833442D01*
X126389412Y-131870545D01*
X126394923Y-131880090D01*
X126396115Y-131883366D01*
X126397592Y-131886534D01*
X126400446Y-131897184D01*
X126406770Y-131906215D01*
X126422055Y-131928044D01*
X126427961Y-131937315D01*
X126433509Y-131946924D01*
X126446806Y-131969955D01*
X126455251Y-131977041D01*
X126475682Y-131994185D01*
X126483785Y-132001611D01*
X128477595Y-133995421D01*
X128511621Y-134057733D01*
X128514500Y-134084516D01*
X128514500Y-134533688D01*
X128494498Y-134601809D01*
X128443436Y-134644107D01*
X128444572Y-134646280D01*
X128262002Y-134741726D01*
X128257201Y-134745586D01*
X128257198Y-134745588D01*
X128224688Y-134771727D01*
X128101447Y-134870815D01*
X127969024Y-135028630D01*
X127966056Y-135034028D01*
X127966053Y-135034033D01*
X127959315Y-135046290D01*
X127869776Y-135209162D01*
X127807484Y-135405532D01*
X127806798Y-135411649D01*
X127806797Y-135411653D01*
X127785207Y-135604137D01*
X127784520Y-135610262D01*
X127801759Y-135815553D01*
X127803458Y-135821478D01*
X127849395Y-135981678D01*
X127858544Y-136013586D01*
X127861359Y-136019063D01*
X127861360Y-136019066D01*
X127949897Y-136191341D01*
X127952712Y-136196818D01*
X128080677Y-136358270D01*
X128085370Y-136362264D01*
X128085371Y-136362265D01*
X128159541Y-136425388D01*
X128237564Y-136491791D01*
X128242942Y-136494797D01*
X128242944Y-136494798D01*
X128273387Y-136511812D01*
X128417398Y-136592297D01*
X128512238Y-136623113D01*
X128607471Y-136654056D01*
X128607475Y-136654057D01*
X128613329Y-136655959D01*
X128817894Y-136680351D01*
X128824029Y-136679879D01*
X128824031Y-136679879D01*
X128880039Y-136675569D01*
X129023300Y-136664546D01*
X129029230Y-136662890D01*
X129029232Y-136662890D01*
X129215797Y-136610800D01*
X129215796Y-136610800D01*
X129221725Y-136609145D01*
X129227214Y-136606372D01*
X129227220Y-136606370D01*
X129400116Y-136519033D01*
X129405610Y-136516258D01*
X129421345Y-136503965D01*
X129563101Y-136393213D01*
X129567951Y-136389424D01*
X129625992Y-136322183D01*
X129698540Y-136238134D01*
X129698540Y-136238133D01*
X129702564Y-136233472D01*
X129723387Y-136196818D01*
X129741056Y-136165714D01*
X129804323Y-136054344D01*
X129813271Y-136027444D01*
X129828496Y-135981678D01*
X129868978Y-135923354D01*
X129934566Y-135896175D01*
X130004437Y-135908770D01*
X130056406Y-135957141D01*
X130070971Y-135993751D01*
X130078564Y-136027444D01*
X130081645Y-136037275D01*
X130161770Y-136234603D01*
X130166413Y-136243794D01*
X130277694Y-136425388D01*
X130283777Y-136433699D01*
X130423213Y-136594667D01*
X130430580Y-136601883D01*
X130594434Y-136737916D01*
X130602881Y-136743831D01*
X130786756Y-136851279D01*
X130796042Y-136855729D01*
X130995001Y-136931703D01*
X131004899Y-136934579D01*
X131108250Y-136955606D01*
X131122299Y-136954410D01*
X131126000Y-136944065D01*
X131126000Y-134308102D01*
X131122082Y-134294758D01*
X131107806Y-134292771D01*
X131069324Y-134298660D01*
X131059288Y-134301051D01*
X130856868Y-134367212D01*
X130847359Y-134371209D01*
X130658463Y-134469542D01*
X130649738Y-134475036D01*
X130479433Y-134602905D01*
X130471726Y-134609748D01*
X130324590Y-134763717D01*
X130318104Y-134771727D01*
X130198098Y-134947649D01*
X130193000Y-134956623D01*
X130103338Y-135149783D01*
X130099775Y-135159470D01*
X130071012Y-135263185D01*
X130033533Y-135323483D01*
X129969405Y-135353946D01*
X129898986Y-135344903D01*
X129844636Y-135299224D01*
X129828973Y-135265933D01*
X129828143Y-135263185D01*
X129815935Y-135222749D01*
X129719218Y-135040849D01*
X129643206Y-134947649D01*
X129592906Y-134885975D01*
X129592903Y-134885972D01*
X129589011Y-134881200D01*
X129571786Y-134866950D01*
X129435025Y-134753811D01*
X129435021Y-134753809D01*
X129430275Y-134749882D01*
X129249055Y-134651897D01*
X129243167Y-134650074D01*
X129242676Y-134649868D01*
X129187628Y-134605033D01*
X129165500Y-134533712D01*
X129165500Y-134084516D01*
X129185502Y-134016395D01*
X129202405Y-133995421D01*
X130676415Y-132521411D01*
X130684519Y-132513984D01*
X130704949Y-132496841D01*
X130713394Y-132489755D01*
X130724827Y-132469952D01*
X130732239Y-132457115D01*
X130738145Y-132447844D01*
X130753430Y-132426015D01*
X130759754Y-132416984D01*
X130762608Y-132406334D01*
X130764085Y-132403166D01*
X130765277Y-132399890D01*
X130770788Y-132390345D01*
X130777330Y-132353242D01*
X130779709Y-132342510D01*
X130789464Y-132306107D01*
X130788098Y-132290484D01*
X130786179Y-132268557D01*
X130785700Y-132257576D01*
X130785700Y-131166717D01*
X130805702Y-131098596D01*
X130859358Y-131052103D01*
X130929632Y-131041999D01*
X130955929Y-131048735D01*
X131002991Y-131066378D01*
X131018249Y-131070005D01*
X131069114Y-131075531D01*
X131075928Y-131075900D01*
X131127885Y-131075900D01*
X131143124Y-131071425D01*
X131144329Y-131070035D01*
X131146000Y-131062352D01*
X131146000Y-129804900D01*
X131166002Y-129736779D01*
X131219658Y-129690286D01*
X131272000Y-129678900D01*
X131528000Y-129678900D01*
X131596121Y-129698902D01*
X131642614Y-129752558D01*
X131654000Y-129804900D01*
X131654000Y-131057784D01*
X131658475Y-131073023D01*
X131659865Y-131074228D01*
X131667548Y-131075899D01*
X131724069Y-131075899D01*
X131730890Y-131075529D01*
X131781752Y-131070005D01*
X131797007Y-131066378D01*
X131844071Y-131048735D01*
X131914878Y-131043552D01*
X131977247Y-131077473D01*
X132011376Y-131139729D01*
X132014300Y-131166717D01*
X132014300Y-132357590D01*
X132013820Y-132368572D01*
X132012766Y-132380624D01*
X132010536Y-132406107D01*
X132013390Y-132416756D01*
X132020291Y-132442510D01*
X132022670Y-132453242D01*
X132029212Y-132490345D01*
X132034723Y-132499890D01*
X132035915Y-132503166D01*
X132037392Y-132506334D01*
X132040246Y-132516984D01*
X132046570Y-132526015D01*
X132061855Y-132547844D01*
X132067761Y-132557115D01*
X132080796Y-132579691D01*
X132086606Y-132589755D01*
X132095051Y-132596841D01*
X132115482Y-132613985D01*
X132123585Y-132621411D01*
X133557595Y-134055422D01*
X133591621Y-134117734D01*
X133594500Y-134144517D01*
X133594500Y-134533688D01*
X133574498Y-134601809D01*
X133523436Y-134644107D01*
X133524572Y-134646280D01*
X133342002Y-134741726D01*
X133337201Y-134745586D01*
X133337198Y-134745588D01*
X133304688Y-134771727D01*
X133181447Y-134870815D01*
X133049024Y-135028630D01*
X133046056Y-135034028D01*
X133046053Y-135034033D01*
X133039315Y-135046290D01*
X132949776Y-135209162D01*
X132947914Y-135215032D01*
X132931068Y-135268138D01*
X132891405Y-135327022D01*
X132826202Y-135355114D01*
X132756163Y-135343497D01*
X132703523Y-135295857D01*
X132688762Y-135260735D01*
X132671214Y-135190875D01*
X132667894Y-135181124D01*
X132582972Y-134985814D01*
X132578105Y-134976739D01*
X132462426Y-134797926D01*
X132456136Y-134789757D01*
X132312806Y-134632240D01*
X132305273Y-134625215D01*
X132138139Y-134493222D01*
X132129552Y-134487517D01*
X131943117Y-134384599D01*
X131933705Y-134380369D01*
X131732959Y-134309280D01*
X131722988Y-134306646D01*
X131651837Y-134293972D01*
X131638540Y-134295432D01*
X131634000Y-134309989D01*
X131634000Y-136943517D01*
X131638064Y-136957359D01*
X131651478Y-136959393D01*
X131658184Y-136958534D01*
X131668262Y-136956392D01*
X131872255Y-136895191D01*
X131881842Y-136891433D01*
X132073095Y-136797739D01*
X132081945Y-136792464D01*
X132255328Y-136668792D01*
X132263200Y-136662139D01*
X132414052Y-136511812D01*
X132420730Y-136503965D01*
X132545003Y-136331020D01*
X132550313Y-136322183D01*
X132644670Y-136131267D01*
X132648469Y-136121672D01*
X132689593Y-135986319D01*
X132728534Y-135926955D01*
X132793388Y-135898068D01*
X132863564Y-135908830D01*
X132916782Y-135955823D01*
X132931270Y-135988217D01*
X132938544Y-136013586D01*
X132941359Y-136019063D01*
X132941360Y-136019066D01*
X133029897Y-136191341D01*
X133032712Y-136196818D01*
X133160677Y-136358270D01*
X133165370Y-136362264D01*
X133165371Y-136362265D01*
X133239541Y-136425388D01*
X133317564Y-136491791D01*
X133322942Y-136494797D01*
X133322944Y-136494798D01*
X133353387Y-136511812D01*
X133497398Y-136592297D01*
X133592238Y-136623113D01*
X133687471Y-136654056D01*
X133687475Y-136654057D01*
X133693329Y-136655959D01*
X133897894Y-136680351D01*
X133904029Y-136679879D01*
X133904031Y-136679879D01*
X133960039Y-136675569D01*
X134103300Y-136664546D01*
X134109230Y-136662890D01*
X134109232Y-136662890D01*
X134295797Y-136610800D01*
X134295796Y-136610800D01*
X134301725Y-136609145D01*
X134307214Y-136606372D01*
X134307220Y-136606370D01*
X134480116Y-136519033D01*
X134485610Y-136516258D01*
X134501345Y-136503965D01*
X134643101Y-136393213D01*
X134647951Y-136389424D01*
X134705992Y-136322183D01*
X134778540Y-136238134D01*
X134778540Y-136238133D01*
X134782564Y-136233472D01*
X134803387Y-136196818D01*
X134821056Y-136165714D01*
X134884323Y-136054344D01*
X134893271Y-136027444D01*
X134908496Y-135981678D01*
X134948978Y-135923354D01*
X135014566Y-135896175D01*
X135084437Y-135908770D01*
X135136406Y-135957141D01*
X135150971Y-135993751D01*
X135158564Y-136027444D01*
X135161645Y-136037275D01*
X135241770Y-136234603D01*
X135246413Y-136243794D01*
X135357694Y-136425388D01*
X135363777Y-136433699D01*
X135503213Y-136594667D01*
X135510580Y-136601883D01*
X135674434Y-136737916D01*
X135682881Y-136743831D01*
X135866756Y-136851279D01*
X135876042Y-136855729D01*
X136075001Y-136931703D01*
X136084899Y-136934579D01*
X136188250Y-136955606D01*
X136202299Y-136954410D01*
X136206000Y-136944065D01*
X136206000Y-136943517D01*
X136714000Y-136943517D01*
X136718064Y-136957359D01*
X136731478Y-136959393D01*
X136738184Y-136958534D01*
X136748262Y-136956392D01*
X136952255Y-136895191D01*
X136961842Y-136891433D01*
X137153095Y-136797739D01*
X137161945Y-136792464D01*
X137335328Y-136668792D01*
X137343200Y-136662139D01*
X137448286Y-136557418D01*
X137510657Y-136523501D01*
X137581464Y-136528689D01*
X137638226Y-136571335D01*
X137655208Y-136602439D01*
X137696675Y-136713052D01*
X137705214Y-136728649D01*
X137781715Y-136830724D01*
X137794276Y-136843285D01*
X137896351Y-136919786D01*
X137911946Y-136928324D01*
X138032394Y-136973478D01*
X138047649Y-136977105D01*
X138098514Y-136982631D01*
X138105328Y-136983000D01*
X138727885Y-136983000D01*
X138743124Y-136978525D01*
X138744329Y-136977135D01*
X138746000Y-136969452D01*
X138746000Y-136964884D01*
X139254000Y-136964884D01*
X139258475Y-136980123D01*
X139259865Y-136981328D01*
X139267548Y-136982999D01*
X139894669Y-136982999D01*
X139901490Y-136982629D01*
X139952352Y-136977105D01*
X139967604Y-136973479D01*
X140088054Y-136928324D01*
X140103649Y-136919786D01*
X140205724Y-136843285D01*
X140218285Y-136830724D01*
X140294786Y-136728649D01*
X140303324Y-136713054D01*
X140348478Y-136592606D01*
X140352105Y-136577351D01*
X140357631Y-136526486D01*
X140358000Y-136519672D01*
X140358000Y-135897115D01*
X140353525Y-135881876D01*
X140352135Y-135880671D01*
X140344452Y-135879000D01*
X139272115Y-135879000D01*
X139256876Y-135883475D01*
X139255671Y-135884865D01*
X139254000Y-135892548D01*
X139254000Y-136964884D01*
X138746000Y-136964884D01*
X138746000Y-135897115D01*
X138741525Y-135881876D01*
X138740135Y-135880671D01*
X138732452Y-135879000D01*
X136732115Y-135879000D01*
X136716876Y-135883475D01*
X136715671Y-135884865D01*
X136714000Y-135892548D01*
X136714000Y-136943517D01*
X136206000Y-136943517D01*
X136206000Y-135352885D01*
X136714000Y-135352885D01*
X136718475Y-135368124D01*
X136719865Y-135369329D01*
X136727548Y-135371000D01*
X138727885Y-135371000D01*
X138743124Y-135366525D01*
X138744329Y-135365135D01*
X138746000Y-135357452D01*
X138746000Y-135352885D01*
X139254000Y-135352885D01*
X139258475Y-135368124D01*
X139259865Y-135369329D01*
X139267548Y-135371000D01*
X140339884Y-135371000D01*
X140355123Y-135366525D01*
X140356328Y-135365135D01*
X140357999Y-135357452D01*
X140357999Y-134730331D01*
X140357629Y-134723510D01*
X140352105Y-134672648D01*
X140348479Y-134657396D01*
X140303324Y-134536946D01*
X140294786Y-134521351D01*
X140218285Y-134419276D01*
X140205724Y-134406715D01*
X140103649Y-134330214D01*
X140088054Y-134321676D01*
X139967606Y-134276522D01*
X139952351Y-134272895D01*
X139901486Y-134267369D01*
X139894672Y-134267000D01*
X139272115Y-134267000D01*
X139256876Y-134271475D01*
X139255671Y-134272865D01*
X139254000Y-134280548D01*
X139254000Y-135352885D01*
X138746000Y-135352885D01*
X138746000Y-134285116D01*
X138741525Y-134269877D01*
X138740135Y-134268672D01*
X138732452Y-134267001D01*
X138105331Y-134267001D01*
X138098510Y-134267371D01*
X138047648Y-134272895D01*
X138032396Y-134276521D01*
X137911946Y-134321676D01*
X137896351Y-134330214D01*
X137794276Y-134406715D01*
X137781715Y-134419276D01*
X137705214Y-134521351D01*
X137696676Y-134536946D01*
X137655100Y-134647849D01*
X137612458Y-134704613D01*
X137545897Y-134729313D01*
X137476548Y-134714105D01*
X137443925Y-134688419D01*
X137392806Y-134632240D01*
X137385273Y-134625215D01*
X137218139Y-134493222D01*
X137209552Y-134487517D01*
X137023117Y-134384599D01*
X137013705Y-134380369D01*
X136812959Y-134309280D01*
X136802988Y-134306646D01*
X136731837Y-134293972D01*
X136718540Y-134295432D01*
X136714000Y-134309989D01*
X136714000Y-135352885D01*
X136206000Y-135352885D01*
X136206000Y-134308102D01*
X136202082Y-134294758D01*
X136187806Y-134292771D01*
X136149324Y-134298660D01*
X136139288Y-134301051D01*
X135936868Y-134367212D01*
X135927359Y-134371209D01*
X135738463Y-134469542D01*
X135729738Y-134475036D01*
X135559433Y-134602905D01*
X135551726Y-134609748D01*
X135404590Y-134763717D01*
X135398104Y-134771727D01*
X135278098Y-134947649D01*
X135273000Y-134956623D01*
X135183338Y-135149783D01*
X135179775Y-135159470D01*
X135151012Y-135263185D01*
X135113533Y-135323483D01*
X135049405Y-135353946D01*
X134978986Y-135344903D01*
X134924636Y-135299224D01*
X134908973Y-135265933D01*
X134908143Y-135263185D01*
X134895935Y-135222749D01*
X134799218Y-135040849D01*
X134723206Y-134947649D01*
X134672906Y-134885975D01*
X134672903Y-134885972D01*
X134669011Y-134881200D01*
X134651786Y-134866950D01*
X134515025Y-134753811D01*
X134515021Y-134753809D01*
X134510275Y-134749882D01*
X134329055Y-134651897D01*
X134323167Y-134650074D01*
X134322676Y-134649868D01*
X134267628Y-134605033D01*
X134245500Y-134533712D01*
X134245500Y-134144516D01*
X134265502Y-134076395D01*
X134282405Y-134055421D01*
X135278231Y-133059595D01*
X137617001Y-133059595D01*
X137617338Y-133066114D01*
X137627257Y-133161706D01*
X137630149Y-133175100D01*
X137681588Y-133329284D01*
X137687761Y-133342462D01*
X137773063Y-133480307D01*
X137782099Y-133491708D01*
X137896829Y-133606239D01*
X137908240Y-133615251D01*
X138046243Y-133700316D01*
X138059424Y-133706463D01*
X138213710Y-133757638D01*
X138227086Y-133760505D01*
X138321438Y-133770172D01*
X138327854Y-133770500D01*
X138727885Y-133770500D01*
X138743124Y-133766025D01*
X138744329Y-133764635D01*
X138746000Y-133756952D01*
X138746000Y-133752384D01*
X139254000Y-133752384D01*
X139258475Y-133767623D01*
X139259865Y-133768828D01*
X139267548Y-133770499D01*
X139672095Y-133770499D01*
X139678614Y-133770162D01*
X139774206Y-133760243D01*
X139787600Y-133757351D01*
X139941784Y-133705912D01*
X139954962Y-133699739D01*
X140092807Y-133614437D01*
X140104208Y-133605401D01*
X140218739Y-133490671D01*
X140227751Y-133479260D01*
X140312816Y-133341257D01*
X140318963Y-133328076D01*
X140370138Y-133173790D01*
X140373005Y-133160414D01*
X140382672Y-133066062D01*
X140383000Y-133059646D01*
X140383000Y-132909615D01*
X140378525Y-132894376D01*
X140377135Y-132893171D01*
X140369452Y-132891500D01*
X139272115Y-132891500D01*
X139256876Y-132895975D01*
X139255671Y-132897365D01*
X139254000Y-132905048D01*
X139254000Y-133752384D01*
X138746000Y-133752384D01*
X138746000Y-132909615D01*
X138741525Y-132894376D01*
X138740135Y-132893171D01*
X138732452Y-132891500D01*
X137635116Y-132891500D01*
X137619877Y-132895975D01*
X137618672Y-132897365D01*
X137617001Y-132905048D01*
X137617001Y-133059595D01*
X135278231Y-133059595D01*
X135616215Y-132721611D01*
X135624319Y-132714184D01*
X135644749Y-132697041D01*
X135653194Y-132689955D01*
X135658707Y-132680406D01*
X135672039Y-132657315D01*
X135677945Y-132648044D01*
X135693230Y-132626215D01*
X135699554Y-132617184D01*
X135702408Y-132606534D01*
X135703885Y-132603366D01*
X135705077Y-132600090D01*
X135710588Y-132590545D01*
X135717130Y-132553442D01*
X135719509Y-132542710D01*
X135723983Y-132526015D01*
X135729264Y-132506307D01*
X135727868Y-132490345D01*
X135725980Y-132468772D01*
X135725500Y-132457790D01*
X135725500Y-132365385D01*
X137617000Y-132365385D01*
X137621475Y-132380624D01*
X137622865Y-132381829D01*
X137630548Y-132383500D01*
X140364884Y-132383500D01*
X140380123Y-132379025D01*
X140381328Y-132377635D01*
X140382999Y-132369952D01*
X140382999Y-132215405D01*
X140382662Y-132208886D01*
X140372743Y-132113294D01*
X140369851Y-132099900D01*
X140318412Y-131945716D01*
X140312239Y-131932538D01*
X140226937Y-131794693D01*
X140217901Y-131783292D01*
X140136982Y-131702514D01*
X140102903Y-131640232D01*
X140100000Y-131613341D01*
X140100000Y-130000000D01*
X140094681Y-130000000D01*
X140086777Y-129973082D01*
X140080602Y-129963472D01*
X140075500Y-129927981D01*
X140075500Y-129408666D01*
X140072519Y-129377131D01*
X140027634Y-129249316D01*
X140022042Y-129241746D01*
X140022041Y-129241743D01*
X139952742Y-129147921D01*
X139947150Y-129140350D01*
X139912803Y-129114981D01*
X139845757Y-129065459D01*
X139845754Y-129065458D01*
X139838184Y-129059866D01*
X139710369Y-129014981D01*
X139702723Y-129014258D01*
X139702722Y-129014258D01*
X139696752Y-129013694D01*
X139678834Y-129012000D01*
X139451500Y-129012000D01*
X139383379Y-128991998D01*
X139336886Y-128938342D01*
X139325500Y-128886000D01*
X139325500Y-128524517D01*
X139345502Y-128456396D01*
X139362405Y-128435422D01*
X139466064Y-128331763D01*
X139528376Y-128297737D01*
X139599191Y-128302802D01*
X139655121Y-128344153D01*
X139666694Y-128359235D01*
X139671718Y-128365782D01*
X139797159Y-128462036D01*
X139943238Y-128522544D01*
X139951426Y-128523622D01*
X140021619Y-128532863D01*
X140100000Y-128543182D01*
X140108188Y-128542104D01*
X140248574Y-128523622D01*
X140256762Y-128522544D01*
X140402841Y-128462036D01*
X140528282Y-128365782D01*
X140544879Y-128344153D01*
X140607149Y-128263000D01*
X140624536Y-128240341D01*
X140685044Y-128094262D01*
X140705682Y-127937500D01*
X140685044Y-127780738D01*
X140624536Y-127634659D01*
X140528282Y-127509218D01*
X140402841Y-127412964D01*
X140256762Y-127352456D01*
X140240295Y-127350288D01*
X140178100Y-127342100D01*
X140100000Y-127331818D01*
X140021900Y-127342100D01*
X139959706Y-127350288D01*
X139943238Y-127352456D01*
X139797159Y-127412964D01*
X139671718Y-127509218D01*
X139666695Y-127515764D01*
X139630677Y-127562704D01*
X139573339Y-127604571D01*
X139530714Y-127612000D01*
X139419698Y-127612000D01*
X139408716Y-127611520D01*
X139382180Y-127609198D01*
X139382178Y-127609198D01*
X139371193Y-127608237D01*
X139360543Y-127611091D01*
X139360541Y-127611091D01*
X139334804Y-127617988D01*
X139324069Y-127620368D01*
X139316508Y-127621701D01*
X139286955Y-127626912D01*
X139277407Y-127632424D01*
X139274130Y-127633617D01*
X139270962Y-127635094D01*
X139260316Y-127637947D01*
X139251287Y-127644269D01*
X139229453Y-127659557D01*
X139220185Y-127665461D01*
X139187545Y-127684306D01*
X139180462Y-127692747D01*
X139180461Y-127692748D01*
X139163325Y-127713170D01*
X139155900Y-127721273D01*
X138783778Y-128093396D01*
X138775674Y-128100822D01*
X138746806Y-128125045D01*
X138741293Y-128134594D01*
X138727961Y-128157685D01*
X138722055Y-128166956D01*
X138700446Y-128197816D01*
X138697592Y-128208466D01*
X138696115Y-128211634D01*
X138694923Y-128214910D01*
X138689412Y-128224455D01*
X138685456Y-128246892D01*
X138682870Y-128261558D01*
X138680492Y-128272285D01*
X138670736Y-128308693D01*
X138671697Y-128319678D01*
X138671697Y-128319680D01*
X138674020Y-128346228D01*
X138674500Y-128357210D01*
X138674500Y-128886000D01*
X138654498Y-128954121D01*
X138600842Y-129000614D01*
X138548500Y-129012000D01*
X138321166Y-129012000D01*
X138303248Y-129013694D01*
X138297278Y-129014258D01*
X138297277Y-129014258D01*
X138289631Y-129014981D01*
X138161816Y-129059866D01*
X138154246Y-129065458D01*
X138154243Y-129065459D01*
X138087197Y-129114981D01*
X138052850Y-129140350D01*
X138047258Y-129147921D01*
X137977959Y-129241743D01*
X137977958Y-129241746D01*
X137972366Y-129249316D01*
X137927481Y-129377131D01*
X137924500Y-129408666D01*
X137924500Y-129932524D01*
X137904687Y-130000000D01*
X137900000Y-130000000D01*
X137900000Y-131613257D01*
X137879998Y-131681378D01*
X137863173Y-131702275D01*
X137781261Y-131784329D01*
X137772249Y-131795740D01*
X137687184Y-131933743D01*
X137681037Y-131946924D01*
X137629862Y-132101210D01*
X137626995Y-132114586D01*
X137617328Y-132208938D01*
X137617000Y-132215355D01*
X137617000Y-132365385D01*
X135725500Y-132365385D01*
X135725500Y-128771588D01*
X135745502Y-128703467D01*
X135799158Y-128656974D01*
X135869432Y-128646870D01*
X135928204Y-128671625D01*
X135997159Y-128724536D01*
X136143238Y-128785044D01*
X136300000Y-128805682D01*
X136308188Y-128804604D01*
X136448574Y-128786122D01*
X136456762Y-128785044D01*
X136602841Y-128724536D01*
X136728282Y-128628282D01*
X136824536Y-128502841D01*
X136885044Y-128356762D01*
X136905682Y-128200000D01*
X136885044Y-128043238D01*
X136824536Y-127897159D01*
X136728282Y-127771718D01*
X136674796Y-127730677D01*
X136632929Y-127673339D01*
X136625500Y-127630714D01*
X136625500Y-126422971D01*
X136645502Y-126354850D01*
X136699158Y-126308357D01*
X136769432Y-126298253D01*
X136834012Y-126327747D01*
X136858933Y-126357136D01*
X136897694Y-126420388D01*
X136903777Y-126428699D01*
X137043213Y-126589667D01*
X137050580Y-126596883D01*
X137214434Y-126732916D01*
X137222881Y-126738831D01*
X137406756Y-126846279D01*
X137416042Y-126850729D01*
X137615001Y-126926703D01*
X137624899Y-126929579D01*
X137728250Y-126950606D01*
X137742299Y-126949410D01*
X137746000Y-126939065D01*
X137746000Y-126938517D01*
X138254000Y-126938517D01*
X138258064Y-126952359D01*
X138271478Y-126954393D01*
X138278184Y-126953534D01*
X138288262Y-126951392D01*
X138492255Y-126890191D01*
X138501842Y-126886433D01*
X138693095Y-126792739D01*
X138701945Y-126787464D01*
X138875328Y-126663792D01*
X138883200Y-126657139D01*
X139034052Y-126506812D01*
X139040730Y-126498965D01*
X139165003Y-126326020D01*
X139170313Y-126317183D01*
X139264670Y-126126267D01*
X139268469Y-126116672D01*
X139330377Y-125912910D01*
X139332555Y-125902837D01*
X139333986Y-125891962D01*
X139331775Y-125877778D01*
X139318617Y-125874000D01*
X138272115Y-125874000D01*
X138256876Y-125878475D01*
X138255671Y-125879865D01*
X138254000Y-125887548D01*
X138254000Y-126938517D01*
X137746000Y-126938517D01*
X137746000Y-125492000D01*
X137766002Y-125423879D01*
X137819658Y-125377386D01*
X137872000Y-125366000D01*
X139318344Y-125366000D01*
X139331875Y-125362027D01*
X139333180Y-125352947D01*
X139291214Y-125185875D01*
X139287894Y-125176124D01*
X139202972Y-124980814D01*
X139198105Y-124971739D01*
X139082426Y-124792926D01*
X139076136Y-124784757D01*
X138932806Y-124627240D01*
X138925273Y-124620215D01*
X138758139Y-124488222D01*
X138749552Y-124482517D01*
X138563117Y-124379599D01*
X138553705Y-124375369D01*
X138362031Y-124307493D01*
X138304495Y-124265899D01*
X138278579Y-124199801D01*
X138292513Y-124130185D01*
X138341872Y-124079154D01*
X138370206Y-124067362D01*
X138375790Y-124065803D01*
X138375799Y-124065800D01*
X138381725Y-124064145D01*
X138387214Y-124061372D01*
X138387220Y-124061370D01*
X138560116Y-123974033D01*
X138565610Y-123971258D01*
X138576082Y-123963077D01*
X138723101Y-123848213D01*
X138727951Y-123844424D01*
X138771250Y-123794262D01*
X138858540Y-123693134D01*
X138858540Y-123693133D01*
X138862564Y-123688472D01*
X138883387Y-123651818D01*
X138936585Y-123558171D01*
X138964323Y-123509344D01*
X139029351Y-123313863D01*
X139055171Y-123109474D01*
X139055583Y-123080000D01*
X139035480Y-122874970D01*
X138975935Y-122677749D01*
X138879218Y-122495849D01*
X138786225Y-122381829D01*
X138752906Y-122340975D01*
X138752903Y-122340972D01*
X138749011Y-122336200D01*
X138742173Y-122330543D01*
X138595025Y-122208811D01*
X138595021Y-122208809D01*
X138590275Y-122204882D01*
X138409055Y-122106897D01*
X138212254Y-122045977D01*
X138206129Y-122045333D01*
X138206128Y-122045333D01*
X138013498Y-122025087D01*
X138013496Y-122025087D01*
X138007369Y-122024443D01*
X137926329Y-122031818D01*
X137808342Y-122042555D01*
X137808339Y-122042556D01*
X137802203Y-122043114D01*
X137604572Y-122101280D01*
X137422002Y-122196726D01*
X137417201Y-122200586D01*
X137417198Y-122200588D01*
X137271928Y-122317388D01*
X137261447Y-122325815D01*
X137129024Y-122483630D01*
X137126056Y-122489028D01*
X137126053Y-122489033D01*
X137039932Y-122645688D01*
X137029776Y-122664162D01*
X136967484Y-122860532D01*
X136966798Y-122866649D01*
X136966797Y-122866653D01*
X136960715Y-122920879D01*
X136944520Y-123065262D01*
X136945036Y-123071406D01*
X136960919Y-123260544D01*
X136961759Y-123270553D01*
X136963458Y-123276478D01*
X137003468Y-123416008D01*
X137018544Y-123468586D01*
X137021359Y-123474063D01*
X137021360Y-123474066D01*
X137109897Y-123646341D01*
X137112712Y-123651818D01*
X137240677Y-123813270D01*
X137397564Y-123946791D01*
X137577398Y-124047297D01*
X137642437Y-124068429D01*
X137701042Y-124108502D01*
X137728680Y-124173898D01*
X137716574Y-124243855D01*
X137668568Y-124296162D01*
X137642646Y-124308027D01*
X137476868Y-124362212D01*
X137467359Y-124366209D01*
X137278463Y-124464542D01*
X137269738Y-124470036D01*
X137099433Y-124597905D01*
X137091726Y-124604748D01*
X136944590Y-124758717D01*
X136938104Y-124766727D01*
X136855588Y-124887691D01*
X136800677Y-124932694D01*
X136730152Y-124940865D01*
X136666405Y-124909611D01*
X136629675Y-124848854D01*
X136625500Y-124816687D01*
X136625500Y-123319710D01*
X136625980Y-123308728D01*
X136628303Y-123282180D01*
X136628303Y-123282178D01*
X136629264Y-123271193D01*
X136619508Y-123234785D01*
X136617130Y-123224058D01*
X136614513Y-123209218D01*
X136610588Y-123186955D01*
X136605077Y-123177410D01*
X136603885Y-123174134D01*
X136602408Y-123170966D01*
X136599554Y-123160316D01*
X136577945Y-123129456D01*
X136572039Y-123120185D01*
X136558707Y-123097094D01*
X136553194Y-123087545D01*
X136524317Y-123063315D01*
X136516215Y-123055889D01*
X135781611Y-122321285D01*
X135774184Y-122313181D01*
X135757041Y-122292751D01*
X135757042Y-122292751D01*
X135749955Y-122284306D01*
X135740406Y-122278793D01*
X135717315Y-122265461D01*
X135708044Y-122259555D01*
X135686215Y-122244270D01*
X135677184Y-122237946D01*
X135666534Y-122235092D01*
X135663366Y-122233615D01*
X135660090Y-122232423D01*
X135650545Y-122226912D01*
X135616801Y-122220962D01*
X135613442Y-122220370D01*
X135602715Y-122217992D01*
X135566307Y-122208236D01*
X135555322Y-122209197D01*
X135555320Y-122209197D01*
X135528772Y-122211520D01*
X135517790Y-122212000D01*
X135187229Y-122212000D01*
X135119108Y-122191998D01*
X135072615Y-122138342D01*
X135068346Y-122127748D01*
X135060384Y-122105075D01*
X135027634Y-122011816D01*
X135022042Y-122004246D01*
X135022041Y-122004243D01*
X134952742Y-121910421D01*
X134947150Y-121902850D01*
X134884732Y-121856747D01*
X134845757Y-121827959D01*
X134845754Y-121827958D01*
X134838184Y-121822366D01*
X134710369Y-121777481D01*
X134702723Y-121776758D01*
X134702722Y-121776758D01*
X134696752Y-121776194D01*
X134678834Y-121774500D01*
X133321166Y-121774500D01*
X133303248Y-121776194D01*
X133297278Y-121776758D01*
X133297277Y-121776758D01*
X133289631Y-121777481D01*
X133161816Y-121822366D01*
X133154246Y-121827958D01*
X133154243Y-121827959D01*
X133115268Y-121856747D01*
X133052850Y-121902850D01*
X133047258Y-121910421D01*
X132978782Y-122003130D01*
X132972366Y-122011816D01*
X132969244Y-122020705D01*
X132968446Y-122022213D01*
X132918893Y-122073056D01*
X132849718Y-122089038D01*
X132782885Y-122065084D01*
X132737567Y-122003130D01*
X132718412Y-121945716D01*
X132712239Y-121932538D01*
X132626937Y-121794693D01*
X132617901Y-121783292D01*
X132503171Y-121668761D01*
X132491760Y-121659749D01*
X132353757Y-121574684D01*
X132340576Y-121568537D01*
X132186290Y-121517362D01*
X132172914Y-121514495D01*
X132078562Y-121504828D01*
X132072145Y-121504500D01*
X131672115Y-121504500D01*
X131656876Y-121508975D01*
X131655671Y-121510365D01*
X131654000Y-121518048D01*
X131654000Y-122674000D01*
X131633998Y-122742121D01*
X131580342Y-122788614D01*
X131528000Y-122800000D01*
X130200000Y-122800000D01*
X130200000Y-122807794D01*
X130189606Y-122819789D01*
X130170602Y-122854594D01*
X130108290Y-122888620D01*
X130081505Y-122891500D01*
X130035116Y-122891500D01*
X130019877Y-122895975D01*
X130018672Y-122897365D01*
X130017001Y-122905048D01*
X130017001Y-123059595D01*
X130017338Y-123066114D01*
X130027257Y-123161706D01*
X130030149Y-123175100D01*
X130081588Y-123329284D01*
X130087761Y-123342462D01*
X130176917Y-123486535D01*
X130175726Y-123487272D01*
X130199383Y-123545715D01*
X130200000Y-123558171D01*
X130200000Y-124986000D01*
X130179998Y-125054121D01*
X130126342Y-125100614D01*
X130074000Y-125112000D01*
X130069286Y-125112000D01*
X130001165Y-125091998D01*
X129969323Y-125062704D01*
X129933305Y-125015764D01*
X129928282Y-125009218D01*
X129802841Y-124912964D01*
X129656762Y-124852456D01*
X129500000Y-124831818D01*
X129433159Y-124840618D01*
X129363012Y-124829679D01*
X129327619Y-124804792D01*
X128662405Y-124139579D01*
X128628380Y-124077266D01*
X128625500Y-124050483D01*
X128625500Y-122365385D01*
X130017000Y-122365385D01*
X130021475Y-122380624D01*
X130022865Y-122381829D01*
X130030548Y-122383500D01*
X131127885Y-122383500D01*
X131143124Y-122379025D01*
X131144329Y-122377635D01*
X131146000Y-122369952D01*
X131146000Y-121522616D01*
X131141525Y-121507377D01*
X131140135Y-121506172D01*
X131132452Y-121504501D01*
X130727905Y-121504501D01*
X130721386Y-121504838D01*
X130625794Y-121514757D01*
X130612400Y-121517649D01*
X130458216Y-121569088D01*
X130445038Y-121575261D01*
X130307193Y-121660563D01*
X130295792Y-121669599D01*
X130181261Y-121784329D01*
X130172249Y-121795740D01*
X130087184Y-121933743D01*
X130081037Y-121946924D01*
X130029862Y-122101210D01*
X130026995Y-122114586D01*
X130017328Y-122208938D01*
X130017000Y-122215355D01*
X130017000Y-122365385D01*
X128625500Y-122365385D01*
X128625500Y-120009595D01*
X129067001Y-120009595D01*
X129067338Y-120016114D01*
X129077257Y-120111706D01*
X129080149Y-120125100D01*
X129131588Y-120279284D01*
X129137761Y-120292462D01*
X129223063Y-120430307D01*
X129232099Y-120441708D01*
X129346829Y-120556239D01*
X129358240Y-120565251D01*
X129496243Y-120650316D01*
X129509424Y-120656463D01*
X129663710Y-120707638D01*
X129677086Y-120710505D01*
X129771438Y-120720172D01*
X129777854Y-120720500D01*
X129927885Y-120720500D01*
X129943124Y-120716025D01*
X129944329Y-120714635D01*
X129946000Y-120706952D01*
X129946000Y-119609615D01*
X129941525Y-119594376D01*
X129940135Y-119593171D01*
X129932452Y-119591500D01*
X129085116Y-119591500D01*
X129069877Y-119595975D01*
X129068672Y-119597365D01*
X129067001Y-119605048D01*
X129067001Y-120009595D01*
X128625500Y-120009595D01*
X128625500Y-118287016D01*
X128645502Y-118218895D01*
X128662405Y-118197921D01*
X128997921Y-117862405D01*
X129060233Y-117828379D01*
X129087016Y-117825500D01*
X129374790Y-117825500D01*
X129442911Y-117845502D01*
X129489404Y-117899158D01*
X129499508Y-117969432D01*
X129470014Y-118034012D01*
X129441093Y-118058644D01*
X129357193Y-118110563D01*
X129345792Y-118119599D01*
X129231261Y-118234329D01*
X129222249Y-118245740D01*
X129137184Y-118383743D01*
X129131037Y-118396924D01*
X129079862Y-118551210D01*
X129076995Y-118564586D01*
X129067328Y-118658938D01*
X129067000Y-118665355D01*
X129067000Y-119065385D01*
X129071475Y-119080624D01*
X129072865Y-119081829D01*
X129080548Y-119083500D01*
X130328000Y-119083500D01*
X130396121Y-119103502D01*
X130442614Y-119157158D01*
X130454000Y-119209500D01*
X130454000Y-120702384D01*
X130458475Y-120717623D01*
X130459865Y-120718828D01*
X130467548Y-120720499D01*
X130622095Y-120720499D01*
X130628614Y-120720162D01*
X130724206Y-120710243D01*
X130737600Y-120707351D01*
X130891784Y-120655912D01*
X130904962Y-120649739D01*
X131042807Y-120564437D01*
X131054208Y-120555401D01*
X131084295Y-120525262D01*
X136944520Y-120525262D01*
X136945036Y-120531406D01*
X136959811Y-120707351D01*
X136961759Y-120730553D01*
X137018544Y-120928586D01*
X137021359Y-120934063D01*
X137021360Y-120934066D01*
X137042247Y-120974707D01*
X137112712Y-121111818D01*
X137240677Y-121273270D01*
X137397564Y-121406791D01*
X137577398Y-121507297D01*
X137672238Y-121538113D01*
X137767471Y-121569056D01*
X137767475Y-121569057D01*
X137773329Y-121570959D01*
X137977894Y-121595351D01*
X137984029Y-121594879D01*
X137984031Y-121594879D01*
X138040039Y-121590569D01*
X138183300Y-121579546D01*
X138189230Y-121577890D01*
X138189232Y-121577890D01*
X138375797Y-121525800D01*
X138375796Y-121525800D01*
X138381725Y-121524145D01*
X138387214Y-121521372D01*
X138387220Y-121521370D01*
X138560116Y-121434033D01*
X138565610Y-121431258D01*
X138727951Y-121304424D01*
X138862564Y-121148472D01*
X138883387Y-121111818D01*
X138961276Y-120974707D01*
X138964323Y-120969344D01*
X139029351Y-120773863D01*
X139055171Y-120569474D01*
X139055583Y-120540000D01*
X139035480Y-120334970D01*
X138975935Y-120137749D01*
X138879218Y-119955849D01*
X138798606Y-119857009D01*
X138752906Y-119800975D01*
X138752903Y-119800972D01*
X138749011Y-119796200D01*
X138712242Y-119765782D01*
X138595025Y-119668811D01*
X138595021Y-119668809D01*
X138590275Y-119664882D01*
X138409055Y-119566897D01*
X138212254Y-119505977D01*
X138206129Y-119505333D01*
X138206128Y-119505333D01*
X138013498Y-119485087D01*
X138013496Y-119485087D01*
X138007369Y-119484443D01*
X137920529Y-119492346D01*
X137808342Y-119502555D01*
X137808339Y-119502556D01*
X137802203Y-119503114D01*
X137604572Y-119561280D01*
X137422002Y-119656726D01*
X137417201Y-119660586D01*
X137417198Y-119660588D01*
X137342211Y-119720879D01*
X137261447Y-119785815D01*
X137129024Y-119943630D01*
X137126056Y-119949028D01*
X137126053Y-119949033D01*
X137036624Y-120111706D01*
X137029776Y-120124162D01*
X136967484Y-120320532D01*
X136966798Y-120326649D01*
X136966797Y-120326653D01*
X136963108Y-120359541D01*
X136944520Y-120525262D01*
X131084295Y-120525262D01*
X131168739Y-120440671D01*
X131177751Y-120429260D01*
X131262816Y-120291257D01*
X131268964Y-120278074D01*
X131299393Y-120186333D01*
X131339824Y-120127973D01*
X131405388Y-120100736D01*
X131418986Y-120100000D01*
X132108020Y-120100000D01*
X132176141Y-120120002D01*
X132219304Y-120166965D01*
X132222366Y-120175684D01*
X132302850Y-120284650D01*
X132310421Y-120290242D01*
X132404243Y-120359541D01*
X132404246Y-120359542D01*
X132411816Y-120365134D01*
X132539631Y-120410019D01*
X132547277Y-120410742D01*
X132547278Y-120410742D01*
X132553248Y-120411306D01*
X132571166Y-120413000D01*
X133428834Y-120413000D01*
X133446752Y-120411306D01*
X133452722Y-120410742D01*
X133452723Y-120410742D01*
X133460369Y-120410019D01*
X133588184Y-120365134D01*
X133595754Y-120359542D01*
X133595757Y-120359541D01*
X133689579Y-120290242D01*
X133697150Y-120284650D01*
X133709665Y-120267706D01*
X133772041Y-120183257D01*
X133772042Y-120183254D01*
X133777634Y-120175684D01*
X133822519Y-120047869D01*
X133825500Y-120016334D01*
X133825500Y-119789000D01*
X133845502Y-119720879D01*
X133899158Y-119674386D01*
X133951500Y-119663000D01*
X134230714Y-119663000D01*
X134298835Y-119683002D01*
X134330677Y-119712296D01*
X134371718Y-119765782D01*
X134497159Y-119862036D01*
X134643238Y-119922544D01*
X134800000Y-119943182D01*
X134808188Y-119942104D01*
X134948574Y-119923622D01*
X134956762Y-119922544D01*
X135102841Y-119862036D01*
X135228282Y-119765782D01*
X135324536Y-119640341D01*
X135379437Y-119507799D01*
X135381884Y-119501891D01*
X135385044Y-119494262D01*
X135405682Y-119337500D01*
X135385044Y-119180738D01*
X135324536Y-119034659D01*
X135228282Y-118909218D01*
X135102841Y-118812964D01*
X134956762Y-118752456D01*
X134800000Y-118731818D01*
X134643238Y-118752456D01*
X134497159Y-118812964D01*
X134371718Y-118909218D01*
X134366695Y-118915764D01*
X134330677Y-118962704D01*
X134273339Y-119004571D01*
X134230714Y-119012000D01*
X133951500Y-119012000D01*
X133883379Y-118991998D01*
X133836886Y-118938342D01*
X133825500Y-118886000D01*
X133825500Y-118658666D01*
X133822519Y-118627131D01*
X133777634Y-118499316D01*
X133772042Y-118491746D01*
X133772041Y-118491743D01*
X133702742Y-118397921D01*
X133697150Y-118390350D01*
X133613147Y-118328304D01*
X133595757Y-118315459D01*
X133595754Y-118315458D01*
X133588184Y-118309866D01*
X133460369Y-118264981D01*
X133452723Y-118264258D01*
X133452722Y-118264258D01*
X133446752Y-118263694D01*
X133428834Y-118262000D01*
X132907208Y-118262000D01*
X132839087Y-118241998D01*
X132824834Y-118225549D01*
X132823486Y-118227104D01*
X132800000Y-118206753D01*
X132800000Y-118200000D01*
X131186678Y-118200000D01*
X131118557Y-118179998D01*
X131097660Y-118163173D01*
X131053171Y-118118761D01*
X131041760Y-118109749D01*
X130959040Y-118058760D01*
X130911547Y-118005988D01*
X130900123Y-117935916D01*
X130928397Y-117870792D01*
X130987391Y-117831293D01*
X131025156Y-117825500D01*
X133912984Y-117825500D01*
X133981105Y-117845502D01*
X134002079Y-117862405D01*
X134355889Y-118216215D01*
X134363316Y-118224319D01*
X134387545Y-118253194D01*
X134397094Y-118258707D01*
X134420185Y-118272039D01*
X134429456Y-118277945D01*
X134460316Y-118299554D01*
X134470966Y-118302408D01*
X134474134Y-118303885D01*
X134477410Y-118305077D01*
X134486955Y-118310588D01*
X134520699Y-118316538D01*
X134524058Y-118317130D01*
X134534785Y-118319508D01*
X134571193Y-118329264D01*
X134582169Y-118328304D01*
X134582172Y-118328304D01*
X134608743Y-118325979D01*
X134619724Y-118325500D01*
X136823500Y-118325500D01*
X136891621Y-118345502D01*
X136938114Y-118399158D01*
X136949500Y-118451500D01*
X136949500Y-118869748D01*
X136961133Y-118928231D01*
X137005448Y-118994552D01*
X137071769Y-119038867D01*
X137083938Y-119041288D01*
X137083939Y-119041288D01*
X137124184Y-119049293D01*
X137130252Y-119050500D01*
X138869748Y-119050500D01*
X138875816Y-119049293D01*
X138916061Y-119041288D01*
X138916062Y-119041288D01*
X138928231Y-119038867D01*
X138994552Y-118994552D01*
X139038867Y-118928231D01*
X139050500Y-118869748D01*
X139050500Y-117130252D01*
X139038867Y-117071769D01*
X138994552Y-117005448D01*
X138928231Y-116961133D01*
X138916062Y-116958712D01*
X138916061Y-116958712D01*
X138875816Y-116950707D01*
X138869748Y-116949500D01*
X137130252Y-116949500D01*
X137124184Y-116950707D01*
X137083939Y-116958712D01*
X137083938Y-116958712D01*
X137071769Y-116961133D01*
X137005448Y-117005448D01*
X136961133Y-117071769D01*
X136949500Y-117130252D01*
X136949500Y-117548500D01*
X136929498Y-117616621D01*
X136875842Y-117663114D01*
X136823500Y-117674500D01*
X134787016Y-117674500D01*
X134718895Y-117654498D01*
X134697921Y-117637595D01*
X134344111Y-117283785D01*
X134336684Y-117275681D01*
X134319541Y-117255251D01*
X134319542Y-117255251D01*
X134312455Y-117246806D01*
X134302906Y-117241293D01*
X134279815Y-117227961D01*
X134270544Y-117222055D01*
X134239684Y-117200446D01*
X134229034Y-117197592D01*
X134225866Y-117196115D01*
X134222590Y-117194923D01*
X134213045Y-117189412D01*
X134179301Y-117183462D01*
X134175942Y-117182870D01*
X134165215Y-117180492D01*
X134128807Y-117170736D01*
X134117822Y-117171697D01*
X134117820Y-117171697D01*
X134091272Y-117174020D01*
X134080290Y-117174500D01*
X128919713Y-117174500D01*
X128908732Y-117174021D01*
X128882170Y-117171697D01*
X128882168Y-117171697D01*
X128871193Y-117170737D01*
X128834783Y-117180492D01*
X128824076Y-117182866D01*
X128786955Y-117189412D01*
X128777412Y-117194921D01*
X128774140Y-117196112D01*
X128770967Y-117197592D01*
X128760316Y-117200446D01*
X128729456Y-117222055D01*
X128720185Y-117227961D01*
X128697094Y-117241293D01*
X128687545Y-117246806D01*
X128680459Y-117255251D01*
X128663315Y-117275682D01*
X128655889Y-117283785D01*
X128083785Y-117855889D01*
X128075681Y-117863316D01*
X128046806Y-117887545D01*
X128041293Y-117897094D01*
X128027961Y-117920185D01*
X128022055Y-117929456D01*
X128000446Y-117960316D01*
X127997592Y-117970966D01*
X127996115Y-117974134D01*
X127994923Y-117977410D01*
X127989412Y-117986955D01*
X127983462Y-118020699D01*
X127982870Y-118024058D01*
X127980492Y-118034785D01*
X127970736Y-118071193D01*
X127971697Y-118082178D01*
X127971697Y-118082180D01*
X127974020Y-118108728D01*
X127974500Y-118119710D01*
X127974500Y-122013215D01*
X127954498Y-122081336D01*
X127900842Y-122127829D01*
X127830568Y-122137933D01*
X127765988Y-122108439D01*
X127736868Y-122065624D01*
X127735163Y-122066527D01*
X127730753Y-122058198D01*
X127727634Y-122049316D01*
X127722042Y-122041746D01*
X127722041Y-122041743D01*
X127652742Y-121947921D01*
X127647150Y-121940350D01*
X127606630Y-121910421D01*
X127545757Y-121865459D01*
X127545754Y-121865458D01*
X127538184Y-121859866D01*
X127410369Y-121814981D01*
X127402723Y-121814258D01*
X127402722Y-121814258D01*
X127396752Y-121813694D01*
X127378834Y-121812000D01*
X126021166Y-121812000D01*
X126003248Y-121813694D01*
X125997278Y-121814258D01*
X125997277Y-121814258D01*
X125989631Y-121814981D01*
X125861816Y-121859866D01*
X125854246Y-121865458D01*
X125854243Y-121865459D01*
X125793370Y-121910421D01*
X125752850Y-121940350D01*
X125747258Y-121947921D01*
X125677959Y-122041743D01*
X125677958Y-122041746D01*
X125672366Y-122049316D01*
X125627481Y-122177131D01*
X125626758Y-122184777D01*
X125626758Y-122184778D01*
X125625522Y-122197856D01*
X125599199Y-122263792D01*
X125541406Y-122305030D01*
X125500081Y-122312000D01*
X124769286Y-122312000D01*
X124701165Y-122291998D01*
X124669323Y-122262704D01*
X124633305Y-122215764D01*
X124628282Y-122209218D01*
X124618812Y-122201951D01*
X124586465Y-122177131D01*
X124502841Y-122112964D01*
X124356762Y-122052456D01*
X124321389Y-122047799D01*
X124208188Y-122032896D01*
X124200000Y-122031818D01*
X124191812Y-122032896D01*
X124078612Y-122047799D01*
X124043238Y-122052456D01*
X123897159Y-122112964D01*
X123813535Y-122177131D01*
X123781189Y-122201951D01*
X123771718Y-122209218D01*
X123766695Y-122215764D01*
X123749674Y-122237946D01*
X123675464Y-122334659D01*
X123614956Y-122480738D01*
X123594318Y-122637500D01*
X123614956Y-122794262D01*
X123675464Y-122940341D01*
X123680491Y-122946892D01*
X123767892Y-123060796D01*
X123793492Y-123127017D01*
X123779227Y-123196565D01*
X123767892Y-123214204D01*
X123675464Y-123334659D01*
X123614956Y-123480738D01*
X123613878Y-123488926D01*
X123611190Y-123509344D01*
X123594318Y-123637500D01*
X123614956Y-123794262D01*
X123618116Y-123801891D01*
X123664909Y-123914859D01*
X123674500Y-123963077D01*
X123674500Y-128986000D01*
X123654498Y-129054121D01*
X123600842Y-129100614D01*
X123548500Y-129112000D01*
X123321166Y-129112000D01*
X123303248Y-129113694D01*
X123297278Y-129114258D01*
X123297277Y-129114258D01*
X123289631Y-129114981D01*
X123161816Y-129159866D01*
X123154246Y-129165458D01*
X123154243Y-129165459D01*
X123069794Y-129227835D01*
X123052850Y-129240350D01*
X123047258Y-129247921D01*
X122977959Y-129341743D01*
X122977958Y-129341746D01*
X122972366Y-129349316D01*
X122927481Y-129477131D01*
X122924500Y-129508666D01*
X122924500Y-129732524D01*
X122904687Y-129800000D01*
X122900000Y-129800000D01*
X122900000Y-131713257D01*
X122879998Y-131781378D01*
X122863173Y-131802275D01*
X122781261Y-131884329D01*
X122772249Y-131895740D01*
X122687184Y-132033743D01*
X122681037Y-132046924D01*
X122629862Y-132201210D01*
X122626995Y-132214586D01*
X122617328Y-132308938D01*
X122617000Y-132315355D01*
X122617000Y-132465385D01*
X122000500Y-132465385D01*
X122000500Y-112004127D01*
X122000770Y-111995886D01*
X122005959Y-111916717D01*
X122006010Y-111915969D01*
X122018699Y-111738555D01*
X122020799Y-111722962D01*
X122042931Y-111611698D01*
X122043389Y-111609497D01*
X122073760Y-111469883D01*
X122077568Y-111456164D01*
X122116194Y-111342376D01*
X122117451Y-111338845D01*
X122165027Y-111211289D01*
X122170077Y-111199594D01*
X122224414Y-111089408D01*
X122226832Y-111084751D01*
X122290804Y-110967595D01*
X122296627Y-110957979D01*
X122365581Y-110854781D01*
X122369450Y-110849311D01*
X122448780Y-110743339D01*
X122454912Y-110735777D01*
X122537095Y-110642065D01*
X122542732Y-110636047D01*
X122636047Y-110542732D01*
X122642065Y-110537095D01*
X122735777Y-110454912D01*
X122743344Y-110448776D01*
X122849311Y-110369450D01*
X122854781Y-110365581D01*
X122957979Y-110296627D01*
X122967595Y-110290804D01*
X123084751Y-110226832D01*
X123089408Y-110224414D01*
X123199594Y-110170077D01*
X123211289Y-110165027D01*
X123338845Y-110117451D01*
X123342376Y-110116194D01*
X123456164Y-110077568D01*
X123469883Y-110073760D01*
X123609497Y-110043389D01*
X123611698Y-110042931D01*
X123722962Y-110020799D01*
X123738555Y-110018699D01*
X123915969Y-110006010D01*
X123916717Y-110005959D01*
X123995886Y-110000770D01*
X124004127Y-110000500D01*
X138995873Y-110000500D01*
X139004114Y-110000770D01*
G37*
%TD.AperFunction*%
%TA.AperFunction,Conductor*%
G36*
X135012794Y-127555452D02*
G01*
X135061172Y-127607414D01*
X135074500Y-127663814D01*
X135074500Y-132290484D01*
X135054498Y-132358605D01*
X135037595Y-132379579D01*
X134009095Y-133408079D01*
X133946783Y-133442105D01*
X133875968Y-133437040D01*
X133830905Y-133408079D01*
X132702205Y-132279379D01*
X132668179Y-132217067D01*
X132665300Y-132190284D01*
X132665300Y-130845585D01*
X132685302Y-130777464D01*
X132721297Y-130740820D01*
X132753439Y-130719343D01*
X132763752Y-130712452D01*
X132808067Y-130646131D01*
X132819700Y-130587648D01*
X132819700Y-129412581D01*
X132839702Y-129344460D01*
X132891012Y-129300000D01*
X132900000Y-129300000D01*
X132900000Y-128000000D01*
X132892206Y-128000000D01*
X132869830Y-127980611D01*
X132870038Y-127980371D01*
X132856603Y-127973035D01*
X132822579Y-127910722D01*
X132819700Y-127883941D01*
X132819700Y-127793600D01*
X132839702Y-127725479D01*
X132893358Y-127678986D01*
X132945700Y-127667600D01*
X133726114Y-127667600D01*
X133794235Y-127687602D01*
X133826077Y-127716896D01*
X133867118Y-127770382D01*
X133992559Y-127866636D01*
X134138638Y-127927144D01*
X134146826Y-127928222D01*
X134217019Y-127937463D01*
X134295400Y-127947782D01*
X134303588Y-127946704D01*
X134311306Y-127945688D01*
X134373781Y-127937463D01*
X134443974Y-127928222D01*
X134452162Y-127927144D01*
X134598241Y-127866636D01*
X134723682Y-127770382D01*
X134819936Y-127644941D01*
X134832091Y-127615596D01*
X134876639Y-127560315D01*
X134944002Y-127537894D01*
X135012794Y-127555452D01*
G37*
%TD.AperFunction*%
%TA.AperFunction,Conductor*%
G36*
X127776272Y-126820002D02*
G01*
X127822765Y-126873658D01*
X127832869Y-126943932D01*
X127808113Y-127002705D01*
X127785091Y-127032707D01*
X127785089Y-127032710D01*
X127780064Y-127039259D01*
X127719556Y-127185338D01*
X127698918Y-127342100D01*
X127719556Y-127498862D01*
X127780064Y-127644941D01*
X127876318Y-127770382D01*
X128001759Y-127866636D01*
X128147838Y-127927144D01*
X128156026Y-127928222D01*
X128226219Y-127937463D01*
X128304600Y-127947782D01*
X128312788Y-127946704D01*
X128320506Y-127945688D01*
X128382981Y-127937463D01*
X128453174Y-127928222D01*
X128461362Y-127927144D01*
X128607441Y-127866636D01*
X128732882Y-127770382D01*
X128773923Y-127716896D01*
X128831261Y-127675029D01*
X128873886Y-127667600D01*
X129854300Y-127667600D01*
X129922421Y-127687602D01*
X129968914Y-127741258D01*
X129980300Y-127793600D01*
X129980300Y-127887419D01*
X129960298Y-127955540D01*
X129908988Y-128000000D01*
X129900000Y-128000000D01*
X129900000Y-129300000D01*
X129907794Y-129300000D01*
X129930170Y-129319389D01*
X129929962Y-129319629D01*
X129943397Y-129326965D01*
X129977421Y-129389278D01*
X129980300Y-129416059D01*
X129980300Y-130587648D01*
X129991933Y-130646131D01*
X130036248Y-130712452D01*
X130046561Y-130719343D01*
X130078703Y-130740820D01*
X130124230Y-130795298D01*
X130134700Y-130845585D01*
X130134700Y-132090284D01*
X130114698Y-132158405D01*
X130097795Y-132179379D01*
X128929095Y-133348079D01*
X128866783Y-133382105D01*
X128795968Y-133377040D01*
X128750905Y-133348079D01*
X127062405Y-131659579D01*
X127028379Y-131597267D01*
X127025500Y-131570484D01*
X127025500Y-126926000D01*
X127045502Y-126857879D01*
X127099158Y-126811386D01*
X127151500Y-126800000D01*
X127708151Y-126800000D01*
X127776272Y-126820002D01*
G37*
%TD.AperFunction*%
%TD*%
M02*
