%TF.GenerationSoftware,KiCad,Pcbnew,(6.0.0)*%
%TF.CreationDate,2022-01-16T12:51:45+01:00*%
%TF.ProjectId,HW_watchdog,48575f77-6174-4636-9864-6f672e6b6963,rev?*%
%TF.SameCoordinates,Original*%
%TF.FileFunction,Legend,Top*%
%TF.FilePolarity,Positive*%
%FSLAX46Y46*%
G04 Gerber Fmt 4.6, Leading zero omitted, Abs format (unit mm)*
G04 Created by KiCad (PCBNEW (6.0.0)) date 2022-01-16 12:51:45*
%MOMM*%
%LPD*%
G01*
G04 APERTURE LIST*
%ADD10C,0.150000*%
%ADD11C,0.120000*%
%ADD12C,0.152400*%
G04 APERTURE END LIST*
D10*
%TO.C,D2*%
X125461904Y-131789880D02*
X125461904Y-130789880D01*
X125700000Y-130789880D01*
X125842857Y-130837500D01*
X125938095Y-130932738D01*
X125985714Y-131027976D01*
X126033333Y-131218452D01*
X126033333Y-131361309D01*
X125985714Y-131551785D01*
X125938095Y-131647023D01*
X125842857Y-131742261D01*
X125700000Y-131789880D01*
X125461904Y-131789880D01*
X126414285Y-130885119D02*
X126461904Y-130837500D01*
X126557142Y-130789880D01*
X126795238Y-130789880D01*
X126890476Y-130837500D01*
X126938095Y-130885119D01*
X126985714Y-130980357D01*
X126985714Y-131075595D01*
X126938095Y-131218452D01*
X126366666Y-131789880D01*
X126985714Y-131789880D01*
%TO.C,R2*%
X126533333Y-121489880D02*
X126200000Y-121013690D01*
X125961904Y-121489880D02*
X125961904Y-120489880D01*
X126342857Y-120489880D01*
X126438095Y-120537500D01*
X126485714Y-120585119D01*
X126533333Y-120680357D01*
X126533333Y-120823214D01*
X126485714Y-120918452D01*
X126438095Y-120966071D01*
X126342857Y-121013690D01*
X125961904Y-121013690D01*
X126914285Y-120585119D02*
X126961904Y-120537500D01*
X127057142Y-120489880D01*
X127295238Y-120489880D01*
X127390476Y-120537500D01*
X127438095Y-120585119D01*
X127485714Y-120680357D01*
X127485714Y-120775595D01*
X127438095Y-120918452D01*
X126866666Y-121489880D01*
X127485714Y-121489880D01*
%TO.C,R3*%
X135833333Y-124552380D02*
X135500000Y-124076190D01*
X135261904Y-124552380D02*
X135261904Y-123552380D01*
X135642857Y-123552380D01*
X135738095Y-123600000D01*
X135785714Y-123647619D01*
X135833333Y-123742857D01*
X135833333Y-123885714D01*
X135785714Y-123980952D01*
X135738095Y-124028571D01*
X135642857Y-124076190D01*
X135261904Y-124076190D01*
X136166666Y-123552380D02*
X136785714Y-123552380D01*
X136452380Y-123933333D01*
X136595238Y-123933333D01*
X136690476Y-123980952D01*
X136738095Y-124028571D01*
X136785714Y-124123809D01*
X136785714Y-124361904D01*
X136738095Y-124457142D01*
X136690476Y-124504761D01*
X136595238Y-124552380D01*
X136309523Y-124552380D01*
X136214285Y-124504761D01*
X136166666Y-124457142D01*
%TO.C,U1*%
X130247296Y-131437119D02*
X130247296Y-132768116D01*
X130325590Y-132924704D01*
X130403884Y-133002998D01*
X130560472Y-133081292D01*
X130873648Y-133081292D01*
X131030236Y-133002998D01*
X131108530Y-132924704D01*
X131186824Y-132768116D01*
X131186824Y-131437119D01*
X132830997Y-133081292D02*
X131891469Y-133081292D01*
X132361233Y-133081292D02*
X132361233Y-131437119D01*
X132204645Y-131672001D01*
X132048057Y-131828589D01*
X131891469Y-131906883D01*
%TO.C,J1*%
X122966666Y-139752380D02*
X122966666Y-140466666D01*
X122919047Y-140609523D01*
X122823809Y-140704761D01*
X122680952Y-140752380D01*
X122585714Y-140752380D01*
X123966666Y-140752380D02*
X123395238Y-140752380D01*
X123680952Y-140752380D02*
X123680952Y-139752380D01*
X123585714Y-139895238D01*
X123490476Y-139990476D01*
X123395238Y-140038095D01*
%TO.C,D3*%
X135861904Y-131589880D02*
X135861904Y-130589880D01*
X136100000Y-130589880D01*
X136242857Y-130637500D01*
X136338095Y-130732738D01*
X136385714Y-130827976D01*
X136433333Y-131018452D01*
X136433333Y-131161309D01*
X136385714Y-131351785D01*
X136338095Y-131447023D01*
X136242857Y-131542261D01*
X136100000Y-131589880D01*
X135861904Y-131589880D01*
X136766666Y-130589880D02*
X137385714Y-130589880D01*
X137052380Y-130970833D01*
X137195238Y-130970833D01*
X137290476Y-131018452D01*
X137338095Y-131066071D01*
X137385714Y-131161309D01*
X137385714Y-131399404D01*
X137338095Y-131494642D01*
X137290476Y-131542261D01*
X137195238Y-131589880D01*
X136909523Y-131589880D01*
X136814285Y-131542261D01*
X136766666Y-131494642D01*
%TO.C,D1*%
X130861904Y-117969880D02*
X130861904Y-116969880D01*
X131100000Y-116969880D01*
X131242857Y-117017500D01*
X131338095Y-117112738D01*
X131385714Y-117207976D01*
X131433333Y-117398452D01*
X131433333Y-117541309D01*
X131385714Y-117731785D01*
X131338095Y-117827023D01*
X131242857Y-117922261D01*
X131100000Y-117969880D01*
X130861904Y-117969880D01*
X132385714Y-117969880D02*
X131814285Y-117969880D01*
X132100000Y-117969880D02*
X132100000Y-116969880D01*
X132004761Y-117112738D01*
X131909523Y-117207976D01*
X131814285Y-117255595D01*
%TO.C,C1*%
X129133333Y-124257142D02*
X129085714Y-124304761D01*
X128942857Y-124352380D01*
X128847619Y-124352380D01*
X128704761Y-124304761D01*
X128609523Y-124209523D01*
X128561904Y-124114285D01*
X128514285Y-123923809D01*
X128514285Y-123780952D01*
X128561904Y-123590476D01*
X128609523Y-123495238D01*
X128704761Y-123400000D01*
X128847619Y-123352380D01*
X128942857Y-123352380D01*
X129085714Y-123400000D01*
X129133333Y-123447619D01*
X130085714Y-124352380D02*
X129514285Y-124352380D01*
X129800000Y-124352380D02*
X129800000Y-123352380D01*
X129704761Y-123495238D01*
X129609523Y-123590476D01*
X129514285Y-123638095D01*
D11*
%TO.C,D2*%
X122865000Y-133622500D02*
X125135000Y-133622500D01*
X125135000Y-133622500D02*
X125135000Y-129737500D01*
X122865000Y-129737500D02*
X122865000Y-133622500D01*
%TO.C,R2*%
X127610000Y-124764564D02*
X127610000Y-123310436D01*
X125790000Y-124764564D02*
X125790000Y-123310436D01*
%TO.C,R3*%
X133090000Y-124727064D02*
X133090000Y-123272936D01*
X134910000Y-124727064D02*
X134910000Y-123272936D01*
D12*
%TO.C,U1*%
X129901400Y-128942300D02*
X129901400Y-129120100D01*
X129901400Y-128332700D02*
X129901400Y-128942300D01*
X129901400Y-128154900D02*
X129901400Y-128332700D01*
X129901400Y-128942300D02*
G75*
G03*
X129901400Y-128332700I0J304800D01*
G01*
D11*
%TO.C,J1*%
X139320000Y-139725000D02*
X139320000Y-145725000D01*
X125920000Y-145725000D02*
X125920000Y-139725000D01*
X132650000Y-137065000D02*
X132650000Y-139725000D01*
X128460000Y-145725000D02*
X128460000Y-139725000D01*
X127570000Y-137065000D02*
X127570000Y-139725000D01*
X126680000Y-145725000D02*
X125920000Y-145725000D01*
X125920000Y-136667929D02*
X125920000Y-137065000D01*
X133540000Y-145725000D02*
X133540000Y-139725000D01*
X139380000Y-136735000D02*
X139380000Y-137065000D01*
X135190000Y-137065000D02*
X135190000Y-139725000D01*
X131760000Y-145725000D02*
X131000000Y-145725000D01*
X124970000Y-139725000D02*
X140330000Y-139725000D01*
X131000000Y-145725000D02*
X131000000Y-139725000D01*
X138960000Y-139725000D02*
X138960000Y-145725000D01*
X139080000Y-139725000D02*
X139080000Y-145725000D01*
X136840000Y-139725000D02*
X136840000Y-145725000D01*
X137730000Y-137065000D02*
X137730000Y-139725000D01*
X134300000Y-139725000D02*
X134300000Y-145725000D01*
X138840000Y-139725000D02*
X138840000Y-145725000D01*
X136840000Y-136667929D02*
X136840000Y-137065000D01*
X133540000Y-136667929D02*
X133540000Y-137065000D01*
X131760000Y-136667929D02*
X131760000Y-137065000D01*
X140270000Y-134355000D02*
X140270000Y-135625000D01*
X134300000Y-145725000D02*
X133540000Y-145725000D01*
X130110000Y-137065000D02*
X130110000Y-139725000D01*
X140330000Y-139725000D02*
X140330000Y-137065000D01*
X129220000Y-139725000D02*
X129220000Y-145725000D01*
X134300000Y-136667929D02*
X134300000Y-137065000D01*
X129220000Y-136667929D02*
X129220000Y-137065000D01*
X138720000Y-139725000D02*
X138720000Y-145725000D01*
X136080000Y-136667929D02*
X136080000Y-137065000D01*
X139000000Y-134355000D02*
X140270000Y-134355000D01*
X126680000Y-139725000D02*
X126680000Y-145725000D01*
X124970000Y-137065000D02*
X124970000Y-139725000D01*
X138620000Y-136735000D02*
X138620000Y-137065000D01*
X136080000Y-145725000D02*
X136080000Y-139725000D01*
X139200000Y-139725000D02*
X139200000Y-145725000D01*
X136840000Y-145725000D02*
X136080000Y-145725000D01*
X139380000Y-145725000D02*
X138620000Y-145725000D01*
X126680000Y-136667929D02*
X126680000Y-137065000D01*
X139380000Y-139725000D02*
X139380000Y-145725000D01*
X129220000Y-145725000D02*
X128460000Y-145725000D01*
X131000000Y-136667929D02*
X131000000Y-137065000D01*
X138620000Y-145725000D02*
X138620000Y-139725000D01*
X131760000Y-139725000D02*
X131760000Y-145725000D01*
X140330000Y-137065000D02*
X124970000Y-137065000D01*
X128460000Y-136667929D02*
X128460000Y-137065000D01*
%TO.C,D3*%
X140135000Y-133522500D02*
X140135000Y-129637500D01*
X137865000Y-133522500D02*
X140135000Y-133522500D01*
X137865000Y-129637500D02*
X137865000Y-133522500D01*
%TO.C,D1*%
X129315000Y-120472500D02*
X133200000Y-120472500D01*
X133200000Y-118202500D02*
X129315000Y-118202500D01*
X129315000Y-118202500D02*
X129315000Y-120472500D01*
%TO.C,C1*%
X130265000Y-122437500D02*
X130265000Y-126322500D01*
X132535000Y-126322500D02*
X132535000Y-122437500D01*
X130265000Y-126322500D02*
X132535000Y-126322500D01*
%TD*%
M02*
